<svg xmlns="http://www.w3.org/2000/svg" viewBox="0 0 512 512" role="img" aria-labelledby="title">
  <title>Seventh-day Adventist Church logo</title>
  <circle cx="256" cy="256" r="244" fill="#103f79"/>
  <g transform="translate(20.5 20.6) scale(2.78)">
    <path
      fill="#fff"
      d="m128.7 161.7c-11.5-1.9-17.7 3.5-19.6 8.6-.2.5-.7.4-.7 0v-1.6c0-5.7 5.1-10.9 11.1-17l10-10 26.6 4.6s7.6 7.6 14.1 14.1c12.5-14.8 20.1-34 20.1-54.9 0-46.9-38-84.9-84.9-84.9-46.9 0-84.9 38-84.9 84.9 0 20.9 7.6 40.1 20.1 54.9 6.5-6.5 14.1-14.1 14.1-14.1l30.2-5.2c14-2.4 17.5.7 17.5 5.4 0 .2-.2.4-.4.4h-8.5c-.2 0-.2.2-.2.4v5.2c0 .2-.2.2 0 .2h8.7c.2 0 .4.2.4.4 0 0 0 16.9 0 17.3 0 .4-.5.5-.7.1-1.9-5.1-8.1-10.5-19.6-8.6 0 0-19.9 3.4-34.7 6 15.2 14.1 35.5 22.8 57.9 22.8 22.4 0 42.7-8.6 57.9-22.8-14.6-2.8-34.5-6.2-34.5-6.2zm-19.5.2c-.1.5-.7.5-.7 0V153c0-.2.1-.4.3-.4h4.4c-1.9 2.7-3.2 5.3-4 9.3zm31.5-55.5c2.1 6.9.7 17.4-9.2 27.4l-12 11.8c-.3.3-.7.8-1 .8h-8.2c2-3 5.4-6.8 9.2-10.6l8.3-8.3c10.5-10.5 12.2-15.5 12.2-21.3.1-.4.6-.4.7.2zm-16.3-6.5c6.8-6.8 8.5-14.7 3-19.4-.5-.4-.2-.9.4-.6 6.8 3.1 12.1 14.3.5 25.9l-8.8 8.8c-6 6-8.8 8.8-10.3 16.1-.1.5-.7.5-.7 0v-8.9c0-5.7 5-10.9 11.1-17zm-54.1 8c-2.1-6.9-.7-17.4 9.2-27.4l26.4-26.4c6-6 9.1-8.9 10.6-16.1.1-.5 1-.5 1 0v8.9c0 5.7-5.3 10.9-11.4 17L83.3 86.6C72.7 97.2 71 102.1 71 107.9c0 .6-.5.6-.7 0zm4 15.7c-5.9-7.2-3.9-18.4 7.7-30l23.9-23.9c6-6 9.1-8.9 10.6-16.2.1-.5 1-.5 1 0v9c0 5.7-5.3 10.9-11.4 17l-21.2 21.1c-4.4 4.4-13.9 13.8-10 22.6.3.6-.2.9-.6.4zm12.3-9.2c-6.8 6.8-8.5 14.7-3 19.4.5.4.2.9-.4.6-6.8-3.1-12.1-14.3-.5-25.9l23.2-23.2c6-6 9.1-8.8 10.6-16.1.1-.5 1-.5 1 0v8.9c0 5.7-5.3 10.9-11.4 17zm21.9 23c0-5.7 5-10.9 11.1-17l6.7-6.7c4.4-4.4 13.8-13.8 9.9-22.6-.3-.6.2-.9.6-.4 5.9 7.2 3.9 18.4-7.7 30l-9.5 9.5c-6 6-8.8 8.9-10.3 16.2-.1.5-.7.5-.7 0v-9z"
    />
  </g>
  <text x="420" y="340" fill="#fff" font-size="32" font-family="Arial, sans-serif">®</text>
</svg>
